0
SECTION
2
HEADER
9
$INSUNITS
70
4
9
$ACADVER
1
AC1014
9
$HANDSEED
5
FFFF
0
ENDSEC
0
SECTION
2
TABLES
0
TABLE
2
VPORT
5
8
100
AcDbSymbolTable
0
ENDTAB
0
TABLE
2
LTYPE
5
5
100
AcDbSymbolTable
0
LTYPE
5
14
100
AcDbSymbolTableRecord
100
AcDbLinetypeTableRecord
2
BYBLOCK
70
0
0
LTYPE
5
15
100
AcDbSymbolTableRecord
100
AcDbLinetypeTableRecord
2
BYLAYER
70
0
0
LTYPE
5
16
100
AcDbSymbolTableRecord
100
AcDbLinetypeTableRecord
2
DASHED
70
0
3
Dashed __ __ __ __ __ __ __ __ __ __ __ __ __ _
72
65
73
2
40
0.75
49
0.5
74
0
49
-0.25
74
0
0
ENDTAB
0
TABLE
2
LAYER
5
2
100
AcDbSymbolTable
70
2
0
LAYER
5
50
100
AcDbSymbolTableRecord
100
AcDbLayerTableRecord
2
0
70
0
62
7
6
CONTINUOUS
0
ENDTAB
0
TABLE
2
STYLE
5
3
100
AcDbSymbolTable
70
1
0
STYLE
5
11
100
AcDbSymbolTableRecord
100
AcDbTextStyleTableRecord
2
STANDARD
70
0
0
ENDTAB
0
TABLE
2
VIEW
5
6
100
AcDbSymbolTable
70
0
0
ENDTAB
0
TABLE
2
UCS
5
7
100
AcDbSymbolTable
70
0
0
ENDTAB
0
TABLE
2
APPID
5
9
100
AcDbSymbolTable
70
2
0
APPID
5
12
100
AcDbSymbolTableRecord
100
AcDbRegAppTableRecord
2
ACAD
70
0
0
ENDTAB
0
TABLE
2
DIMSTYLE
5
A
100
AcDbSymbolTable
70
1
0
ENDTAB
0
TABLE
2
BLOCK_RECORD
5
1
100
AcDbSymbolTable
70
1
0
BLOCK_RECORD
5
1F
100
AcDbSymbolTableRecord
100
AcDbBlockTableRecord
2
*MODEL_SPACE
0
BLOCK_RECORD
5
1B
100
AcDbSymbolTableRecord
100
AcDbBlockTableRecord
2
*PAPER_SPACE
0
ENDTAB
0
ENDSEC
0
SECTION
2
BLOCKS
0
BLOCK
5
20
100
AcDbEntity
100
AcDbBlockBegin
2
*MODEL_SPACE
0
ENDBLK
5
21
100
AcDbEntity
100
AcDbBlockEnd
0
BLOCK
5
1C
100
AcDbEntity
100
AcDbBlockBegin
2
*PAPER_SPACE
0
ENDBLK
5
1D
100
AcDbEntity
100
AcDbBlockEnd
0
ENDSEC
0
SECTION
2
ENTITIES
0
CIRCLE
5
100
100
AcDbEntity
8
0
100
AcDbCircle
10
-113
20
-45.000001393644247
30
0
40
2.0500000000000007
210
0
220
-0
230
1
0
CIRCLE
5
101
100
AcDbEntity
8
0
100
AcDbCircle
10
0
20
0
30
0
40
2.0499999999999998
210
0
220
-0
230
1
0
LWPOLYLINE
5
102
100
AcDbEntity
8
0
100
AcDbPolyline
90
8
70
1
43
0.0
10
-27.000000022375573
20
-50
42
0.26344714029872751
10
-22.71253537143728
20
-47.572478777137626
10
4.2874646285627271
20
-2.5724787771376345
42
0.58297085655758596
10
-8.3266726846886741e-16
20
4.9999999999999991
10
-139.99769742955965
20
5
42
0.58312512177398512
10
-144.28746463372028
20
-2.5724782383586282
10
-117.28746463544022
20
-47.572478439991251
42
0.26344713880459564
10
-113.00000001893511
20
-49.999999674316101
0
CIRCLE
5
103
100
AcDbEntity
8
0
100
AcDbCircle
10
-40
20
-10
30
0
40
2.0500000000000007
210
0
220
-0
230
1
0
CIRCLE
5
104
100
AcDbEntity
8
0
100
AcDbCircle
10
-140.00000034083197
20
5.5264435349141026e-14
30
0
40
2.0500000000000007
210
0
220
-0
230
1
0
CIRCLE
5
105
100
AcDbEntity
8
0
100
AcDbCircle
10
-27
20
-45
30
0
40
2.0500000000000007
210
0
220
-0
230
1
0
LWPOLYLINE
5
106
100
AcDbEntity
8
0
100
AcDbPolyline
90
6
70
1
43
0.0
10
-8.7829919298203514
20
-8.8073679881884903
10
-24.220115513793218
20
-34.535907294810016
42
-0.62887965634452792
10
-27.809951909237842
20
-34.203288843162213
10
-35.794978065556194
20
-12.705141499228176
42
0.043311273622639486
10
-35.391823124309674
20
-11.940285000290665
10
-10.983049031318119
20
-5.8380914770427701
42
-0.66817863791929821
0
CIRCLE
5
107
100
AcDbEntity
8
0
100
AcDbCircle
10
-40
20
-2.0000000000000018
30
0
40
1.5000000000000036
210
0
220
-0
230
1
0
LWPOLYLINE
5
108
100
AcDbEntity
8
0
100
AcDbPolyline
90
6
70
1
43
0.0
10
-129.01695077016089
20
-5.8380912911077125
10
-104.60817687417942
20
-11.940284776657757
42
0.043311268911463835
10
-104.20502198321942
20
-12.705141196187306
10
-112.19004794955893
20
-34.203288688427676
42
-0.62887966077200264
10
-115.77988435473034
20
-34.535907154271463
10
-131.21700787527413
20
-8.8073677974523115
42
-0.66817863711363612
0
CIRCLE
5
109
100
AcDbEntity
8
0
100
AcDbCircle
10
-70.000000151480876
20
-5.0000000000000009
30
0
40
3.2000000000000028
210
0
220
-0
230
1
0
CIRCLE
5
110
100
AcDbEntity
8
0
100
AcDbCircle
10
-100.00000026509153
20
-9.9999999999999751
30
0
40
2.0500000000000007
210
0
220
-0
230
1
0
LWPOLYLINE
5
111
100
AcDbEntity
8
0
100
AcDbPolyline
90
10
70
1
43
0.0
10
-63.712859878540655
20
-9.0892379715997595
10
-44.438772655360083
20
-12.301585825909536
42
0.20390201553059853
10
-41.419529707750385
20
-14.794260673848905
10
-32.316050838417944
20
-39.303626814676555
42
-0.52265645107319036
10
-34.190901382012399
20
-41.999999875028266
10
-105.80909849928032
20
-41.99999987502818
42
-0.5226564476904586
10
-107.68394905027564
20
-39.303626834601914
10
-98.580470397090892
20
-14.794260477669958
42
0.2039020095247607
10
-95.561227448055931
20
-12.301585798133377
10
-76.287140423584063
20
-9.0892379728866679
42
0.54249815972195137
0
CIRCLE
5
112
100
AcDbEntity
8
0
100
AcDbCircle
10
-55
20
-2.0000000000000018
30
0
40
1.5000000000000036
210
0
220
-0
230
1
0
LINE
5
113
100
AcDbEntity
8
0
100
AcDbLine
10
0
20
5
30
0
11
-139.99769742955965
21
5
31
0
0
CIRCLE
5
114
100
AcDbEntity
8
0
100
AcDbCircle
10
-70.000000151480876
20
-5.0000000000000009
30
0
40
3.2000000000000028
210
0
220
-0
230
1
0
ENDSEC
0
SECTION
2
OBJECTS
0
DICTIONARY
5
C
100
AcDbDictionary
3
ACAD_GROUP
350
D
3
ACAD_MLINESTYLE
350
17
0
DICTIONARY
5
D
100
AcDbDictionary
0
DICTIONARY
5
1A
330
C
100
AcDbDictionary
0
DICTIONARY
5
17
100
AcDbDictionary
0
ENDSEC
0
EOF
